<?xml version="1.0" encoding="utf-8"?>
<!-- Generator: Adobe Illustrator 25.0.0, SVG Export Plug-In . SVG Version: 6.00 Build 0)  -->
<svg version="1.1" id="Layer_1" xmlns="http://www.w3.org/2000/svg" xmlns:xlink="http://www.w3.org/1999/xlink" x="0px" y="0px"
	 viewBox="0 0 512 512" style="enable-background:new 0 0 512 512;" xml:space="preserve">
<style type="text/css">
	.st0{fill:url(#SVGID_1_);}
	.st1{opacity:0.6;fill:none;stroke:#D4A843;stroke-width:3;enable-background:new    ;}
	.st2{fill:#D4A843;}
	.st3{fill:#FEFCF8;}
	.st4{fill:url(#SVGID_2_);}
	.st5{opacity:0.6;fill:none;stroke:#D4A843;stroke-width:10;enable-background:new    ;}
</style>
<linearGradient id="SVGID_1_" gradientUnits="userSpaceOnUse" x1="-745.07" y1="1254.8386" x2="-744.07" y2="1253.8386" gradientTransform="matrix(512 0 0 -512 379673 642841)">
	<stop  offset="0" style="stop-color:#0D7377"/>
	<stop  offset="1" style="stop-color:#14919B"/>
</linearGradient>
<path class="st0" d="M-1706.9,363.6h320c53,0,96,43,96,96v320c0,53-43,96-96,96h-320c-53,0-96-43-96-96v-320
	C-1802.9,406.6-1759.9,363.6-1706.9,363.6z"/>
<g transform="translate(256 256)">
	<circle class="st1" cx="-1802.9" cy="363.6" r="200.8"/>
	<g>
		<circle class="st2" cx="-1976.3" cy="363.6" r="11"/>
		<circle class="st2" cx="-1629.4" cy="363.6" r="11"/>
		<circle class="st2" cx="-1802.9" cy="190.2" r="11"/>
		<circle class="st2" cx="-1802.9" cy="537.1" r="11"/>
	</g>
</g>
<g>
	<g>
		<path class="st3" d="M-1551.5,684.3c0-0.8,0.1-1.4,0.1-1.9c0-13.5,0.1-27,0-40.5c-0.1-12.7-4.3-23.9-12.7-33.4
			c-5.6-6.4-12.5-11.1-20-14.9c-0.7-0.4-1.4-0.7-2.1-1.2c-2-1.2-2.7-3.5-1.7-5.8c0.8-2,3-3.2,5.1-2.3c3.8,1.6,7.4,3.6,11,5.5
			c0.4,0.2,0.8,0.5,1.4,0.9c0.6-2.1,0.4-4-0.1-5.9c-1.6-5.6-6.4-9.8-11.7-10.3c-6.3-0.6-11.6,2.1-14.4,7.7
			c-2.5,5.1-1.9,10.1,1.4,14.6c3.5,4.7,8.3,6.4,14.1,5.4c3.7-0.7,6.1,1.4,5.9,5.1c-0.1,1.9-1.7,3.5-4,3.9c-9.1,1.6-16.9-1-22.8-8.1
			c-11-13.4-4.1-33.4,12.8-37.3c13.1-3,26.1,5.9,28.1,19.2c0.5,3.6,0.4,7.1-0.9,10.5c-0.4,1-0.1,1.6,0.6,2.4c3,3.4,5.9,6.8,8.8,10.2
			c0.3,0.3,0.5,0.7,1.1,1.4c0.1-1,0.1-1.5,0.1-2.1c0-17,0.1-34,0-51c-0.1-10.8,2.5-20.9,8.1-30.1c4.1-6.7,9.5-12.3,15.7-17
			c2.2-1.6,5-1.3,6.4,0.6c1.6,2.1,1.1,5-1.1,6.7c-4.8,3.7-9.1,8.1-12.4,13.2c-4.8,7.3-7.6,15.5-7.6,24.2
			c-0.2,26.7-0.1,53.4-0.1,80.1c0,3.2,0,6.3,0,9.8c0.5-0.4,0.7-0.5,0.9-0.7c3-3.5,5.9-7,9-10.5c0.8-0.9,1-1.5,0.7-2.6
			c-4.1-13.8,4.2-27.4,18.2-29.9c13.3-2.4,26,7.5,27.1,20.9c1,12.1-7.3,22.7-18.9,25c-3.5,0.7-6.9,0.5-10.3-0.4
			c-2.3-0.7-3.5-2-3.6-4.1c-0.1-2,0.6-3.7,2.5-4.4c1.2-0.5,2.7-0.5,3.9-0.2c5.7,1.1,10.5-0.5,14.1-5c3.6-4.5,4.1-9.5,1.8-14.7
			c-2.7-6.2-9.8-9.5-16.4-7.7c-6.5,1.8-11,8.4-10.3,15c0,0.2,0.1,0.5,0.2,0.9c0.6-0.3,1-0.6,1.5-0.9c3.4-1.8,6.6-3.7,10.1-5.3
			c2.7-1.2,5-0.3,6.1,2.1c1.1,2.4,0.1,4.7-2.4,6.2c-4.6,2.7-9.4,5.2-13.7,8.4c-11.8,9-18.8,20.8-20.2,35.7
			c-0.4,3.9-0.2,7.8-0.3,11.7c0,0.2,0.1,0.5,0.2,1c3-0.3,5.9-0.6,8.8-1c16.3-2.7,31-9.3,44.9-18.1c21.3-13.5,39.8-30.1,55.6-49.8
			c1.8-2.3,3.4-4.7,5.1-7.1c1.5-2.2,3.1-2.9,5-2.3c2.1,0.6,3.2,2.3,3.1,4.9c-0.1,12.8-1.7,25.5-4.7,38
			c-5.7,23.1-16.5,43.4-32.7,60.8c-12.8,13.7-27.8,24.2-45.2,31.2c-16.3,6.6-33.2,9.6-50.8,8.6c-17.4-0.9-33.8-5.5-49.2-13.6
			c-13.4-7-25.3-16.1-35.5-27.3c-16.4-18-27.1-39-32.5-62.7c-2.6-11.4-4-23-4-34.8c0-1.1,0.1-2.3,0.6-3.2c1.6-2.8,5-3,7-0.4
			c1.5,2,2.8,4.1,4.4,6.1c10,13.2,21.8,24.8,34.5,35.4c11.2,9.3,23.1,17.5,36.2,24c9.9,4.9,20.1,8.5,31,10.3
			C-1557.6,683.7-1554.7,684-1551.5,684.3z M-1662.9,628.4c-0.1,0.1-0.3,0.2-0.4,0.2c0.3,1.8,0.6,3.6,0.8,5.5
			c2.6,16.7,8,32.5,16.7,47c12.5,20.9,29.5,37,51.4,47.8c14.2,7,29.2,10.6,44.9,11.1c11.2,0.3,22.2-1.2,33-4.4
			c14.1-4.2,26.7-11,38.3-20c12.7-9.9,22.9-21.9,30.9-35.8c8.1-14.1,13.3-29.2,15.9-45.3c0.3-2,0.6-4,0.9-6
			c-0.5,0.1-0.8,0.2-0.9,0.4c-5.4,6.6-11.4,12.6-17.6,18.3c-15.1,13.9-31.4,26.1-50,35c-12.6,6-25.7,10.3-39.6,11.5
			c-15.3,1.3-30-1.1-44.3-6.4c-13.9-5.2-26.7-12.5-38.7-21.2c-14-10.1-26.8-21.6-38.3-34.5C-1660.9,630.6-1661.9,629.5-1662.9,628.4
			z"/>
		<path class="st3" d="M-1501.3,512.8c0.1,11.3-8.7,21.4-19.8,22.9c-1.2,0.2-2.4,0.3-3.6,0.3c-3,0-4.9-1.9-4.9-4.6
			c0-2.7,2-4.3,4.9-4.6c2.2-0.2,4.5-0.7,6.5-1.7c5.9-2.8,8.8-9.7,7.1-16c-1.8-6.5-7.8-10.9-14.4-10.4c-6.4,0.4-11.9,5.6-12.9,12
			c-0.1,0.7-0.1,1.4-0.1,2.1c-0.2,2.6-2.2,4.5-4.7,4.5c-2.5,0-4.5-2-4.5-4.7c0-11.1,8-21.2,19.9-22.8
			C-1513.5,487.9-1501.4,498.5-1501.3,512.8z"/>
		<path class="st3" d="M-1514.5,553.9c2.3,0.3,4.6,0.5,6.8,0.9c4.1,0.7,5.9,2.6,6.3,6.7c0.6,7-0.6,13.6-4.4,19.6
			c-6.1,9.7-19.2,11.6-27.5,3.8c-9-8.5-6.4-23,5.5-28.3C-1523.5,554.8-1519.1,554.1-1514.5,553.9z M-1514.5,563.1
			c-0.6,0-1.2-0.1-1.8,0c-3.9,0.4-7.6,1.1-10.7,3.9c-3,2.8-3.3,7.6-0.5,10.7c3.7,4.1,10.1,3.7,13.4-0.9c2-2.7,3.1-5.8,3.4-9.2
			C-1510.3,563-1509.8,563.3-1514.5,563.1z"/>
		<path class="st3" d="M-1578.9,518.5c5.5,0.1,10.8,1.1,15.5,4.1c6.7,4.2,9.7,11.8,7.5,19.6c-1.9,6.8-8.9,11.9-16.3,12
			c-7.8,0.1-14.5-4.6-17.6-12.1c-1.9-4.6-2.8-9.4-2.7-14.4c0.1-5.6,2.1-7.9,7.6-8.7C-1582.9,518.7-1580.9,518.6-1578.9,518.5z
			 M-1578.9,527.6c-0.4,0-0.8,0-1.2,0c-3.3,0.1-3.4,0.1-3.1,3.5c0.3,4.2,1.4,8.1,4.4,11.2c4.5,4.7,12.2,3.1,14.1-2.9
			c1.2-3.7-0.7-7.6-4.5-9.6C-1572.3,528.2-1575.5,527.6-1578.9,527.6z"/>
	</g>
</g>
<g>
	
		<linearGradient id="SVGID_2_" gradientUnits="userSpaceOnUse" x1="-741.5488" y1="1255.5488" x2="-740.5488" y2="1254.5488" gradientTransform="matrix(512 0 0 -512 379673 642841)">
		<stop  offset="0" style="stop-color:#0D7377"/>
		<stop  offset="1" style="stop-color:#14919B"/>
	</linearGradient>
	<path class="st4" d="M96,0h320c53,0,96,43,96,96v320c0,53-43,96-96,96H96c-53,0-96-43-96-96V96C0,43,43,0,96,0z"/>
	<g transform="translate(256 256)">
		<circle class="st5" cx="0" cy="0" r="200.8"/>
	</g>
	<g>
		<g>
			<path class="st3" d="M251,325.3c0-0.9,0.1-1.4,0.1-2c0-14.5,0.1-28.9,0-43.4c-0.1-13.6-4.6-25.5-13.6-35.8
				c-6-6.8-13.4-11.9-21.4-16c-0.8-0.4-1.5-0.8-2.3-1.2c-2.2-1.3-2.9-3.7-1.9-6.2c0.9-2.1,3.2-3.4,5.4-2.5c4,1.7,7.9,3.9,11.8,5.8
				c0.5,0.2,0.9,0.6,1.5,0.9c0.7-2.2,0.5-4.3-0.1-6.3c-1.7-6-6.8-10.4-12.6-11c-6.7-0.7-12.4,2.3-15.4,8.3
				c-2.7,5.4-2.1,10.8,1.5,15.6c3.7,5,8.9,6.9,15.1,5.8c4-0.7,6.6,1.5,6.3,5.5c-0.2,2.1-1.8,3.7-4.3,4.2c-9.8,1.7-18.1-1.1-24.4-8.7
				c-11.8-14.3-4.4-35.8,13.7-40c14-3.2,28,6.3,30.1,20.5c0.6,3.8,0.4,7.6-0.9,11.3c-0.4,1-0.1,1.7,0.7,2.5c3.2,3.6,6.3,7.3,9.5,11
				c0.3,0.4,0.6,0.7,1.2,1.5c0.1-1,0.1-1.6,0.1-2.2c0-18.2,0.1-36.4,0-54.7c-0.1-11.6,2.6-22.3,8.7-32.2
				c4.4-7.2,10.1-13.2,16.9-18.2c2.3-1.7,5.3-1.4,6.9,0.7c1.7,2.2,1.2,5.4-1.1,7.2c-5.2,4-9.7,8.7-13.3,14.1
				c-5.2,7.9-8.1,16.6-8.2,25.9c-0.2,28.6-0.1,57.2-0.1,85.8c0,3.4,0,6.7,0,10.4c0.5-0.4,0.7-0.6,0.9-0.8c3.2-3.7,6.4-7.5,9.6-11.2
				c0.8-0.9,1.1-1.6,0.7-2.8c-4.4-14.8,4.5-29.3,19.5-32c14.2-2.6,27.8,8,29,22.4c1.1,12.9-7.9,24.4-20.2,26.7
				c-3.7,0.7-7.4,0.6-11-0.5c-2.5-0.7-3.7-2.2-3.9-4.4c-0.1-2.1,0.6-4,2.6-4.7c1.3-0.5,2.8-0.5,4.2-0.3c6.1,1.2,11.2-0.5,15.1-5.3
				c3.9-4.8,4.4-10.2,2-15.7c-2.9-6.7-10.5-10.2-17.6-8.3c-6.9,1.9-11.8,8.9-11,16c0,0.3,0.1,0.5,0.2,1c0.6-0.4,1.1-0.7,1.6-0.9
				c3.6-1.9,7.1-4,10.8-5.7c2.9-1.3,5.4-0.3,6.5,2.2c1.2,2.5,0.2,5-2.5,6.6c-4.9,2.9-10.1,5.5-14.6,9c-12.6,9.6-20.1,22.3-21.6,38.2
				c-0.4,4.2-0.2,8.4-0.3,12.6c0,0.3,0.1,0.5,0.2,1c3.2-0.4,6.3-0.6,9.4-1.1c17.4-2.9,33.2-10,48.1-19.4
				c22.8-14.4,42.6-32.2,59.5-53.3c1.9-2.4,3.6-5.1,5.4-7.6c1.6-2.3,3.3-3.1,5.4-2.5c2.2,0.7,3.4,2.5,3.4,5.2
				c-0.2,13.7-1.8,27.3-5.1,40.7c-6.1,24.7-17.7,46.5-35,65.1c-13.7,14.7-29.8,25.9-48.4,33.4c-17.4,7.1-35.6,10.3-54.3,9.2
				c-18.6-1-36.1-5.9-52.7-14.5c-14.4-7.5-27.1-17.3-38-29.2c-17.6-19.3-29-41.7-34.8-67.2c-2.8-12.2-4.3-24.6-4.3-37.2
				c0-1.1,0.1-2.4,0.7-3.4c1.7-3,5.4-3.2,7.5-0.4c1.6,2.1,3,4.4,4.7,6.6c10.7,14.2,23.4,26.5,37,37.9c12,10,24.7,18.8,38.7,25.6
				c10.6,5.2,21.6,9.1,33.2,11C244.5,324.7,247.6,324.9,251,325.3z M131.7,265.4c-0.1,0.1-0.3,0.2-0.4,0.2c0.3,2,0.6,3.9,0.9,5.9
				c2.8,17.9,8.6,34.8,17.9,50.3c13.4,22.4,31.6,39.6,55,51.2c15.2,7.5,31.2,11.4,48.1,11.9c12,0.4,23.8-1.3,35.3-4.7
				c15.1-4.4,28.6-11.8,41-21.4c13.6-10.6,24.5-23.4,33.1-38.3c8.7-15.1,14.3-31.3,17-48.5c0.3-2.1,0.6-4.3,0.9-6.4
				c-0.6,0.1-0.8,0.2-1,0.5c-5.8,7-12.2,13.4-18.9,19.6c-16.1,14.9-33.6,27.9-53.5,37.5c-13.5,6.5-27.5,11-42.4,12.3
				c-16.3,1.4-32.1-1.2-47.4-6.9c-14.9-5.5-28.5-13.4-41.4-22.7c-15-10.8-28.7-23.1-41-36.9C133.9,267.8,132.8,266.6,131.7,265.4z"
				/>
			<path class="st3" d="M304.8,141.6c0.1,12.1-9.3,22.9-21.2,24.5c-1.3,0.2-2.6,0.3-3.8,0.3c-3.2,0-5.2-2-5.2-4.9
				c0-2.9,2.1-4.6,5.3-4.9c2.3-0.3,4.8-0.8,6.9-1.8c6.3-3,9.4-10.4,7.6-17.1c-1.9-7-8.3-11.6-15.4-11.2c-6.8,0.4-12.8,6-13.8,12.8
				c-0.1,0.7-0.1,1.5-0.1,2.3c-0.2,2.8-2.3,4.9-5.1,4.8c-2.7-0.1-4.8-2.1-4.8-5c0-11.9,8.5-22.7,21.4-24.4
				C291.7,115,304.7,126.3,304.8,141.6z"/>
			<path class="st3" d="M290.6,185.7c2.4,0.3,4.9,0.5,7.3,0.9c4.4,0.8,6.3,2.8,6.7,7.2c0.6,7.5-0.7,14.6-4.7,21
				c-6.5,10.4-20.6,12.4-29.4,4c-9.6-9.1-6.9-24.7,5.9-30.3C281,186.6,285.7,185.9,290.6,185.7z M290.6,195.5c-0.6,0-1.3-0.1-1.9,0
				c-4.1,0.4-8.2,1.2-11.4,4.1c-3.3,3-3.5,8.2-0.5,11.4c4,4.4,10.8,3.9,14.4-1c2.1-2.9,3.3-6.2,3.6-9.8
				C295.1,195.3,295.7,195.7,290.6,195.5z"/>
			<path class="st3" d="M221.7,147.7c5.9,0.2,11.5,1.2,16.6,4.4c7.2,4.5,10.4,12.6,8.1,21c-2,7.3-9.5,12.8-17.5,12.8
				c-8.3,0.1-15.5-4.9-18.9-12.9c-2.1-4.9-3-10-2.9-15.4c0.1-6,2.2-8.5,8.2-9.3C217.4,148,219.6,147.9,221.7,147.7z M221.7,157.5
				c-0.4,0-0.9,0-1.3,0c-3.6,0.1-3.6,0.1-3.3,3.7c0.4,4.5,1.5,8.7,4.7,12c4.8,5.1,13.1,3.3,15.1-3.1c1.3-4-0.7-8.2-4.8-10.3
				C228.8,158.1,225.3,157.4,221.7,157.5z"/>
		</g>
	</g>
</g>
</svg>
